<svg id="cross" xmlns="http://www.w3.org/2000/svg" viewBox="0 0 360 360">
  <title>cross</title>
  <path d="M50,0C59,.13,67.42,3.68,74.42,10.67Q99.22,35.42,124,60.21q23.6,23.59,47.2,47.2c5.54,5.53,12.2,5.52,17.75,0q48-48,96-96c14.92-15,36.92-15.18,51.84-.27,4.39,4.38,8.82,8.72,13.13,13.16a35.32,35.32,0,0,1-.12,49.62c-18.48,18.63-37.09,37.13-55.65,55.69Q273.4,150.26,252.68,171c-5.63,5.63-5.67,12.28,0,17.92q45.3,45.33,90.61,90.62c4.78,4.79,9.91,9.27,13,15.55a35.49,35.49,0,0,1-6.18,40.37c-5.69,5.82-11.18,12-17.54,17-14.4,11.34-34,9.73-47-3.31q-39.76-39.69-79.45-79.45c-5.7-5.7-11.39-11.43-17.11-17.11s-12.25-5.61-17.94.08q-48.1,48.09-96.18,96.22c-14.61,14.63-36.67,14.77-51.3.22C19,344.58,14.47,340.12,10,335.55a35.33,35.33,0,0,1,.18-49.43c17.15-17.32,34.44-34.5,51.67-51.73q22.6-22.6,45.22-45.2c6.19-6.22,6-12.44-.13-18.62Q58.77,122.39,10.61,74.18C-3.53,60-3.53,38.12,10.56,23.85,16.39,17.94,22.25,12,28.6,6.67,34.36,1.84,41.51.06,50,0Z" transform="translate(0 0)"/>
</svg>
