<svg id="cross" xmlns="http://www.w3.org/2000/svg" viewBox="0 0 100 100">
  <title>cross</title>
  <path d="M19,8.82c1.77.07,4.39,1.49,6.82,3.4,6.47,5.1,12.06,11.26,17.86,17.16,1.59,1.61,3.23,3.16,4.8,4.79.81.84,1.43.72,2.24,0Q62.36,23.2,74,12.31C77.81,8.78,81.43,5,85.87,2.38a14.33,14.33,0,0,1,8-2.37c3.07.14,5.16,1.93,5.9,5.13s-.14,6.23-2.85,7.75c-3.78,2.13-6.51,5.36-9.37,8.62-3.13,3.57-6.79,6.58-10.09,10-4.08,4.22-8.23,8.4-12,13-3,3.67-2.31,7.2,1.37,10.13,2.66,2.12,5.6,3.87,8.12,6.15A111.28,111.28,0,0,1,92.24,80,28.18,28.18,0,0,1,97.37,91.5a17.55,17.55,0,0,1,.21,2.81c0,4.49-2.58,6.52-6.67,5.37a14.34,14.34,0,0,1-7.65-5.59c-3-4-5.76-8.26-8.76-12.28a175.82,175.82,0,0,0-17.86-21,2.92,2.92,0,0,0-3.32-.81c-3,1-5.32,3.18-7.51,5.49C40.65,71,36.4,77.26,32.12,83.49c-4.91,7.15-11,12.5-19,15.24A17.26,17.26,0,0,1,4,99.56C.6,98.86-.76,96.43.41,93A32.8,32.8,0,0,1,6.76,82.19C12,76,17.34,70,22.85,64.07c3.57-3.83,7.5-7.27,11.32-10.83a17.17,17.17,0,0,0,4.42-7.52,2.37,2.37,0,0,0-.3-1.93c-1.75-1.84-3.64-3.54-5.46-5.3a27.44,27.44,0,0,1-3-3.06c-1.22-1.59-2.12-3.46-3.35-5-2.27-2.91-4.67-5.69-7-8.51-1.43-1.71-2.88-3.4-4.28-5.13a9.35,9.35,0,0,1-1-1.8C12.29,11.13,13.69,8.72,19,8.82Z" fill="#b53e47"/>
</svg>
