<svg id="pencil" xmlns="http://www.w3.org/2000/svg" viewBox="0 0 360 360">
  <title>pencil</title>
  <g>
    <path d="M238.7,48.09l74.49,74.07c-.51.58-1.23,1.5-2.06,2.32Q212.52,222.57,113.85,320.6a12.73,12.73,0,0,1-4.66,3.08Q56.41,341.45,3.57,359.05c-1,.32-2,.53-3.57.95,4.14-12.17,8.07-23.79,12-35.41,8-23.58,16-47.17,24.19-70.7a20.36,20.36,0,0,1,4.6-7.42Q110.32,177,180,107.61q28-27.94,56-55.93A34,34,0,0,0,238.7,48.09ZM76,254.62c-8.54,1.65-17.09,3.22-25.58,5.05-1,.21-2,1.69-2.41,2.8C42,279,36,295.58,30.25,312.21a5.26,5.26,0,0,0,1.06,4.45c4.21,4.43,8.64,8.67,13.22,12.72a5.59,5.59,0,0,0,4.54,1.05c17-5.31,34-10.8,50.9-16.35,1.13-.37,2.67-1.38,2.87-2.34,1.86-8.53,3.46-17.12,5.15-25.75H76Z"/>
    <path d="M248.83,39.17c11.08-11.08,22.08-22.58,33.65-33.48,8.44-7.95,20.53-7.49,29.16.85q20.55,19.82,40.49,40.26c10.3,10.62,10.54,25.67.44,36.33-9.7,10.24-20.12,19.78-30,29.39Z"/>
  </g>
</svg>
