<?xml version="1.0" encoding="utf-8"?>
<!-- Generator: Adobe Illustrator 23.0.3, SVG Export Plug-In . SVG Version: 6.00 Build 0)  -->
<svg version="1.1" id="search" xmlns="http://www.w3.org/2000/svg" xmlns:xlink="http://www.w3.org/1999/xlink" x="0px" y="0px"
	 viewBox="0 0 217.1 197.8" style="enable-background:new 0 0 217.1 197.8;" xml:space="preserve">
<title>search</title>
<path d="M81.3,137.3l-35.6,39.1c-4.3,4.7-8.6,9.4-12.9,14.1c-5.6,6-12.6,6.7-17.5,1.9c-4.9-4.8-4.5-12.2,1.9-17.8
	C33,160,48.9,145.5,64.8,131.1c1.8-1.6,3.5-3.2,5.5-5.1c-14.7-19.5-20-41.1-14.7-64.9C59.5,42.7,70.4,26.4,86,15.8
	c31.2-21.5,73.4-16.9,99.2,10.8c25.6,27.5,26.7,70.3,2.4,100.1C165.6,153.9,119.9,166.2,81.3,137.3z M190.9,78.4
	c0.6-32.6-26.6-60.8-58.9-62c-33-1.3-63.5,24.9-64.2,60.1c-0.6,33.7,26.1,61.8,58.7,63.1C161.8,141,191.1,112.5,190.9,78.4z"/>
<path d="M216.4,197.8l-0.5-0.5c0.3-0.1,0.6-0.1,0.8-0.1c0.1,0,0.2,0.2,0.3,0.3L216.4,197.8z"/>
</svg>
