<svg id="tick" xmlns="http://www.w3.org/2000/svg" viewBox="0 0 349.26 316.66">
  <title>tick</title>
  <path d="M134.45,206.05l11.22,16.86.64.51a6.68,6.68,0,0,1,.71-1.5c14.52-18.25,29.39-36.21,45.29-53.27,12.93-13.88,26.25-27.39,39.41-41.06.5-.51,3.83-3.69,4.49-4.28q19.41-17.48,38.92-34.83c1.87-1.67,3.8-3.27,5.75-4.83.52-.42,2.72-2.22,3.35-2.72a651.54,651.54,0,0,1,55.63-40.07,9.21,9.21,0,0,1,11.66,1C355,45.16,356,50,353.91,53.73a11.29,11.29,0,0,1-1.85,2.34C332.25,76,312.23,95.74,292.67,115.91c-25.08,25.84-49.12,52.63-71.82,80.6-12.94,16-25.47,32.21-37.18,49.08-6.82,9.83-13.45,19.78-20,29.75-9.33,14.11-28.61,15.18-38.81,1.61-14.07-18.72-27.65-37.81-39.5-58.06-7.85-13.42-14.81-27.28-19.76-42-2.24-6.68-4-13.53-5.67-20.39-1.41-5.82,2.8-12.51,8.41-14a8.45,8.45,0,0,1,7.53,1.68c4.83,3.67,9.75,7.23,14.36,11.15,14.23,12.11,26.33,26.18,37.37,41.19Z" transform="translate(-5.74 -23.73)" fill="#6ab04c"/>
  <path d="M162.58,340.39A155.26,155.26,0,0,1,52.22,294.58,158,158,0,0,1,9.13,214.73,155.52,155.52,0,0,1,5.81,178c1-34.94,12.29-66.51,33.43-93.83A155.2,155.2,0,0,1,95.33,38.85,152.7,152.7,0,0,1,147,24.48,154.77,154.77,0,0,1,270.17,67.41c2.77,2.68,5.44,5.51,8,8.24l.88.94a4.93,4.93,0,0,1,1.53,3.67,5,5,0,0,1-1.9,3.58c-.9.78-1.8,1.5-2.68,2.19l-1,.82-1.83,1.48-1.59-1.74c-36.42-39.83-81.65-56.15-134.43-48.48a43.1,43.1,0,0,0-6.54,1.55c-.52.15-.9.27-1.08.31A140.39,140.39,0,0,0,78.44,63.35a145.19,145.19,0,0,0-41.52,46.73,143.42,143.42,0,0,0-17.57,53.55c-3.84,32.21,2.12,62.67,17.72,90.54a144.21,144.21,0,0,0,45.36,49.28A142,142,0,0,0,182,326.59c30.94-4.38,58.15-17.85,80.89-40a143,143,0,0,0,28.28-39.18c.19-.39.39-.77.6-1.16l0,0c.24-.52,1.93-4.37,2.71-6.17a142.85,142.85,0,0,0,10.86-40.87,147.23,147.23,0,0,0-7.54-66.42c-1.26-3.55-2.78-7.13-4.25-10.58l-.43-1a4.24,4.24,0,0,1,.91-5c1-1,1.84-2,2.78-3.13l1.2-1.4,1.26-1.45,3.19,1.57.37.79c.25.53.51,1,.76,1.57.55,1.15,1.13,2.34,1.66,3.55a160.94,160.94,0,0,1,12,86.67,158.33,158.33,0,0,1-91,122.39,153.63,153.63,0,0,1-39.83,11.91c-.55.09-6.06.91-7.89,1.08Q170.5,340.4,162.58,340.39ZM275.67,79.8Z" transform="translate(-5.74 -23.73)" fill="#6ab04c"/>
</svg>
