<svg id="cross" xmlns="http://www.w3.org/2000/svg" viewBox="0 0 90.56 100">
  <title>tick</title>
  <path d="M35.71,99.27a3.23,3.23,0,0,1-3,.62,13.17,13.17,0,0,1-6.81-3.4,12.68,12.68,0,0,1-3.6-5.93,64.11,64.11,0,0,0-3.19-7.34c-3.89-8.48-7.84-17-11.66-25.46a50.92,50.92,0,0,1-2.47-7.13,5.79,5.79,0,0,1,.45-4.3c.75-1.41,1.41-1.71,2.93-1.23a12.78,12.78,0,0,1,5,3.34c.83.81,1.49,1.8,2.28,2.66.64.68,1.39,1.25,2.06,1.9,2.61,2.58,4.18,5.86,5.88,9s3.2,6.39,4.85,9.56a12,12,0,0,0,1.57,2.3c1.08,1.26,2,1.14,2.78-.33.54-1.07.94-2.22,1.47-3.29,1.44-2.94,2.88-5.88,4.39-8.78,2.26-4.34,4.46-8.72,6.9-13C47,45.87,49,43.43,50.7,40.88c3.32-4.83,6.62-9.67,10-14.48A166.89,166.89,0,0,1,75,8a64.4,64.4,0,0,1,6.53-5.8,13.28,13.28,0,0,1,3-1.67A4.14,4.14,0,0,1,87.54.15a2.66,2.66,0,0,0,1.25.07,1.44,1.44,0,0,1,1.47.39c0,.05.09.11.14.1,1.33,0,2.2,1.08,3.41,1.35S95.73,4.48,95,5.64A15.56,15.56,0,0,1,92.29,9,82.1,82.1,0,0,0,80.15,23.2c-2.64,3.75-5.6,7.28-8.29,11C70,36.87,68.3,39.7,66.5,42.43c-3.23,4.89-6.43,9.79-9.72,14.64A156.38,156.38,0,0,0,47,72.71c-1.74,3.36-3.34,6.79-5,10.2-1.41,3-1.62,6.12-1.74,9.32,0,1.15.07,2.37-.86,3.29Z" transform="translate(-4.72)" fill="#4dba74"/>
</svg>
